#!OML:ASF H:\LiuWeirdWalks\Patient Classification 1\Patient 1\Session 1\male.ASF
:FULLY-SPECIFIED
:DEGREES
660
root 1.00302 18.0246 -12.2709 2.4286 1.84297 -2.51086
lowerback 10.2337 0.729056 0.220301
upperback 1.94575 1.2034 4.92196
thorax -3.81501 0.61935 4.86485
lowerneck -20.2106 2.71282 10.0249
upperneck 16.3067 3.83548 -14.6859
head 8.94098 0.889864 -6.26366
rclavicle -7.55382e-015 -4.45278e-014
rhumerus -22.6927 -32.4054 -7.61935
rradius 34.7816
rwrist -0.110889
rhand -21.1469 -1.51896
rfingers 7.12502
rthumb 5.23249 -31.4344
lclavicle -7.55382e-015 -4.45278e-014
lhumerus -28.022 27.1101 30.8054
lradius 46.0167
lwrist 12.4538
lhand -18.8814 0.313175
lfingers 7.12502
lthumb 7.41965 30.1631
rfemur 3.23153 -1.17538 17.6834
rtibia 27.3839
rfoot -9.08345 -22.5029
rtoes -10.9686
lfemur -21.7155 3.08033 -14.1004
ltibia 28.7088
lfoot -2.72712 11.2239
ltoes -7.1417
661
root 1.02652 18.0417 -12.1982 2.59262 1.69882 -2.71124
lowerback 10.09 0.707578 -0.0409076
upperback 1.89335 1.13669 4.73428
thorax -3.78527 0.588436 4.82416
lowerneck -20.4282 2.80424 10.0649
upperneck 16.4576 3.86326 -14.2906
head 9.02477 0.936754 -6.13053
rclavicle -1.19271e-015 -7.95139e-015
rhumerus -22.4236 -32.1777 -7.77196
rradius 34.8364
rwrist -0.364729
rhand -21.1369 -1.65188
rfingers 7.12502
rthumb 5.24215 -31.567
lclavicle -1.19271e-015 -7.95139e-015
lhumerus -28.3432 26.9884 30.9116
lradius 46.2228
lwrist 12.4713
lhand -18.9829 0.22312
lfingers 7.12502
lthumb 7.32162 30.0764
rfemur 3.16847 -1.37984 17.7269
rtibia 27.467
rfoot -8.60526 -22.0909
rtoes -11.2941
lfemur -21.5653 3.02906 -13.9405
ltibia 28.6686
lfoot -2.7969 11.4655
ltoes -6.84115
662
root 1.04963 18.0586 -12.1264 2.76502 1.57974 -2.9268
lowerback 9.94721 0.676468 -0.283813
upperback 1.83392 1.06073 4.55701
thorax -3.76221 0.552953 4.78535
lowerneck -20.65 2.90277 10.1125
upperneck 16.6362 3.89854 -13.8922
head 9.12001 0.988446 -5.9973
rclavicle 8.54774e-015 5.40694e-014
rhumerus -22.1462 -31.9186 -7.8867
rradius 34.9432
rwrist -0.6685
rhand -21.1458 -1.80509
rfingers 7.12502
rthumb 5.23354 -31.7205
lclavicle 8.54774e-015 5.40694e-014
lhumerus -28.7208 26.845 31.0352
lradius 46.4626
lwrist 12.534
lhand -19.0821 0.123693
lfingers 7.12502
lthumb 7.22589 29.9803
rfemur 3.10275 -1.5792 17.7921
rtibia 27.5336
rfoot -8.11915 -21.6909
rtoes -11.5788
lfemur -21.4343 2.98787 -13.7671
ltibia 28.6269
lfoot -2.89028 11.6879
ltoes -6.56796
663
root 1.07281 18.075 -12.0551 2.94033 1.47957 -3.14803
lowerback 9.80555 0.639345 -0.506775
upperback 1.76969 0.979847 4.38069
thorax -3.7439 0.514939 4.7368
lowerneck -20.8299 2.97745 10.1533
upperneck 16.7914 3.9023 -13.4965
head 9.19557 1.02717 -5.86664
rclavicle -1.59028e-014 -3.89618e-014
rhumerus -21.8779 -31.716 -7.93929
rradius 35.0674
rwrist -0.83908
rhand -21.1334 -1.90636
rfingers 7.12502
rthumb 5.24555 -31.8214
lclavicle -1.59028e-014 -3.89618e-014
lhumerus -29.1228 26.7047 31.1699
lradius 46.6858
lwrist 12.5788
lhand -19.148 0.0356551
lfingers 7.12502
lthumb 7.1623 29.8945
rfemur 3.04374 -1.77224 17.8629
rtibia 27.5816
rfoot -7.64233 -21.2926
rtoes -11.8242
lfemur -21.3119 2.95425 -13.5911
ltibia 28.5841
lfoot -3.01089 11.8991
ltoes -6.31282
664
root 1.09636 18.0907 -11.9842 3.10925 1.38568 -3.37153
lowerback 9.68145 0.602879 -0.710917
upperback 1.69763 0.902955 4.20366
thorax -3.7434 0.479039 4.67624
lowerneck -20.902 3.02614 10.206
upperneck 16.8888 3.87428 -13.1274
head 9.22881 1.05366 -5.74886
rclavicle 4.37326e-015 2.46493e-014
rhumerus -21.6178 -31.5473 -7.93147
rradius 35.2101
rwrist -0.935532
rhand -21.1208 -2.01641
rfingers 7.12502
rthumb 5.2577 -31.9312
lclavicle 4.37326e-015 2.46493e-014
lhumerus -29.5485 26.5592 31.3188
lradius 46.8814
lwrist 12.6064
lhand -19.1674 -0.0503518
lfingers 7.12502
lthumb 7.14354 29.8091
rfemur 3.00035 -1.95107 17.9343
rtibia 27.6092
rfoot -7.14227 -20.8897
rtoes -12.1051
lfemur -21.1844 2.9195 -13.413
ltibia 28.5419
lfoot -3.15246 12.1099
ltoes -6.11163
665
root 1.1208 18.1054 -11.9135 3.26929 1.28933 -3.59465
lowerback 9.56431 0.571523 -0.886604
upperback 1.63006 0.835912 4.02062
thorax -3.74237 0.447624 4.59177
lowerneck -20.964 3.06228 10.2722
upperneck 16.9663 3.82865 -12.7848
head 9.25233 1.07088 -5.64486
rclavicle 2.08724e-015 -1.27222e-014
rhumerus -21.3742 -31.4305 -7.86264
rradius 35.3686
rwrist -0.950423
rhand -21.1066 -2.08624
rfingers 7.12502
rthumb 5.27138 -32.0007
lclavicle 2.08724e-015 -1.27222e-014
lhumerus -29.9633 26.4298 31.4905
lradius 47.033
lwrist 12.6307
lhand -19.1663 -0.0899498
lfingers 7.12502
lthumb 7.1446 29.7695
rfemur 2.9773 -2.11478 17.998
rtibia 27.6166
rfoot -6.65033 -20.4782
rtoes -12.4035
lfemur -21.0458 2.87718 -13.2362
ltibia 28.5009
lfoot -3.31149 12.3306
ltoes -5.95079
666
root 1.14631 18.1193 -11.8436 3.42044 1.18194 -3.81515
lowerback 9.4663 0.551221 -1.03478
upperback 1.56237 0.786606 3.82992
thorax -3.75316 0.424825 4.48133
lowerneck -21.0191 3.09335 10.3689
upperneck 17.0316 3.77247 -12.4744
head 9.27077 1.08243 -5.55888
rclavicle 6.75868e-015 8.74653e-015
rhumerus -21.1579 -31.3619 -7.72702
rradius 35.5446
rwrist -0.925436
rhand -21.0691 -2.12023
rfingers 7.12502
rthumb 5.30766 -32.0338
lclavicle 6.75868e-015 8.74653e-015
lhumerus -30.3623 26.3056 31.6817
lradius 47.1311
lwrist 12.6307
lhand -19.1381 -0.111939
lfingers 7.12502
lthumb 7.17189 29.7465
rfemur 2.97036 -2.25948 18.05
rtibia 27.6046
rfoot -6.17735 -20.0572
rtoes -12.6927
lfemur -20.8967 2.82394 -13.0637
ltibia 28.4631
lfoot -3.48378 12.5712
ltoes -5.82605
667
root 1.17301 18.1323 -11.774 3.56486 1.06077 -4.02981
lowerback 9.36686 0.542769 -1.15926
upperback 1.49986 0.755365 3.63507
thorax -3.75902 0.410561 4.35078
lowerneck -21.0786 3.11067 10.4536
upperneck 17.1117 3.69978 -12.158
head 9.29293 1.08627 -5.47156
rclavicle -5.96354e-015 5.96354e-015
rhumerus -20.9597 -31.3095 -7.53658
rradius 35.7472
rwrist -0.912471
rhand -21.0574 -2.16398
rfingers 7.12502
rthumb 5.31897 -32.0772
lclavicle -5.96354e-015 5.96354e-015
lhumerus -30.7371 26.1936 31.895
lradius 47.1709
lwrist 12.6447
lhand -19.1028 -0.113822
lfingers 7.12502
lthumb 7.20595 29.7435
rfemur 2.97645 -2.38661 18.0863
rtibia 27.5754
rfoot -5.71192 -19.6257
rtoes -12.977
lfemur -20.7388 2.7596 -12.9006
ltibia 28.4303
lfoot -3.66705 12.8379
ltoes -5.73161
668
root 1.201 18.1443 -11.7047 3.69821 0.924517 -4.24696
lowerback 9.27904 0.543682 -1.25464
upperback 1.43863 0.739932 3.44486
thorax -3.77109 0.403874 4.20677
lowerneck -21.1595 3.14137 10.5627
upperneck 17.2095 3.64281 -11.8685
head 9.32859 1.09592 -5.39674
rclavicle -2.23633e-015 1.98785e-014
rhumerus -20.7728 -31.2464 -7.28933
rradius 35.9794
rwrist -0.957544
rhand -21.0605 -2.2104
rfingers 7.12502
rthumb 5.31593 -32.1237
lclavicle -2.23633e-015 1.98785e-014
lhumerus -31.0948 26.1299 32.1192
lradius 47.1421
lwrist 12.6482
lhand -19.0628 -0.124424
lfingers 7.12502
lthumb 7.2445 29.7316
rfemur 3.00038 -2.49672 18.1157
rtibia 27.5317
rfoot -5.27306 -19.1881
rtoes -13.2179
lfemur -20.5682 2.68822 -12.7392
ltibia 28.403
lfoot -3.85681 13.1313
ltoes -5.67845
669
root 1.22997 18.1558 -11.6357 3.82679 0.798301 -4.45949
lowerback 9.18434 0.545186 -1.32602
upperback 1.38589 0.727802 3.25935
thorax -3.77055 0.39825 4.05378
lowerneck -21.2526 3.1506 10.627
upperneck 17.313 3.56417 -11.5593
head 9.36473 1.09463 -5.3104
rclavicle 3.47873e-016 1.53064e-014
rhumerus -20.5858 -31.1963 -6.99513
rradius 36.2275
rwrist -1.02886
rhand -21.1074 -2.278
rfingers 7.12502
rthumb 5.27064 -32.1925
lclavicle 3.47873e-016 1.53064e-014
lhumerus -31.402 26.1557 32.3548
lradius 47.027
lwrist 12.6287
lhand -19.0409 -0.131877
lfingers 7.12502
lthumb 7.26569 29.7234
rfemur 3.03772 -2.61295 18.1332
rtibia 27.4747
rfoot -4.84829 -18.7446
rtoes -13.4035
lfemur -20.3994 2.60853 -12.5899
ltibia 28.3844
lfoot -4.04962 13.4329
ltoes -5.66496
670
root 1.2599 18.1664 -11.5665 3.94163 0.685555 -4.65999
lowerback 9.09769 0.54848 -1.38368
upperback 1.33458 0.719897 3.08191
thorax -3.7733 0.394617 3.90119
lowerneck -21.3925 3.16472 10.6744
upperneck 17.4703 3.49926 -11.2635
head 9.43015 1.09638 -5.22613
rclavicle -8.22472e-015 2.74323e-014
rhumerus -20.4073 -31.0852 -6.65081
rradius 36.5038
rwrist -1.18328
rhand -21.1984 -2.37218
rfingers 7.12502
rthumb 5.18281 -32.2888
lclavicle -8.22472e-015 2.74323e-014
lhumerus -31.6835 26.2272 32.6005
lradius 46.8636
lwrist 12.6343
lhand -19.0336 -0.125526
lfingers 7.12502
lthumb 7.27268 29.7295
rfemur 3.10104 -2.74245 18.1282
rtibia 27.4057
rfoot -4.42996 -18.2905
rtoes -13.5362
lfemur -20.2226 2.52341 -12.4624
ltibia 28.3752
lfoot -4.24776 13.7365
ltoes -5.69349
671
root 1.29064 18.176 -11.4972 4.03667 0.58739 -4.87256
lowerback 9.01778 0.553 -1.40474
upperback 1.29234 0.717762 2.91922
thorax -3.77058 0.39324 3.74276
lowerneck -21.535 3.17829 10.7495
upperneck 17.5953 3.43804 -11.0427
head 9.48786 1.09393 -5.17229
rclavicle -1.2598e-014 7.35503e-015
rhumerus -20.2308 -30.9827 -6.26215
rradius 36.776
rwrist -1.28857
rhand -21.3324 -2.45409
rfingers 7.12502
rthumb 5.05336 -32.3738
lclavicle -1.2598e-014 7.35503e-015
lhumerus -31.9261 26.3543 32.8509
lradius 46.6543
lwrist 12.6517
lhand -19.0396 -0.130717
lfingers 7.12502
lthumb 7.26697 29.7245
rfemur 3.19311 -2.88664 18.1292
rtibia 27.328
rfoot -4.01565 -17.8317
rtoes -13.6154
lfemur -20.0344 2.44316 -12.3289
ltibia 28.3785
lfoot -4.45127 14.0333
ltoes -5.7525
672
root 1.32162 18.1851 -11.4283 4.11377 0.524741 -5.09751
lowerback 8.95844 0.555708 -1.39619
upperback 1.2538 0.716974 2.77777
thorax -3.77551 0.392301 3.58981
lowerneck -21.5969 3.16968 10.8086
upperneck 17.6713 3.36438 -10.8624
head 9.51333 1.08242 -5.13007
rclavicle -4.41636e-016 5.30895e-015
rhumerus -20.0641 -30.8768 -5.83045
rradius 37.0481
rwrist -1.36274
rhand -21.5066 -2.54082
rfingers 7.12502
rthumb 4.88522 -32.4645
lclavicle -4.41636e-016 5.30895e-015
lhumerus -32.1432 26.5159 33.1117
lradius 46.4368
lwrist 12.6867
lhand -19.0632 -0.139075
lfingers 7.12502
lthumb 7.24412 29.7169
rfemur 3.3067 -3.05841 18.1418
rtibia 27.2461
rfoot -3.58632 -17.3698
rtoes -13.6731
lfemur -19.8448 2.35245 -12.1868
ltibia 28.3951
lfoot -4.65437 14.3158
ltoes -5.83786
673
root 1.35288 18.1935 -11.3601 4.17733 0.493773 -5.34151
lowerback 8.90328 0.557179 -1.35451
upperback 1.22779 0.718643 2.66284
thorax -3.76984 0.391993 3.44567
lowerneck -21.6715 3.16658 10.8789
upperneck 17.7273 3.30647 -10.7461
head 9.53779 1.07168 -5.1103
rclavicle -6.28657e-015 -4.47266e-015
rhumerus -19.9131 -30.789 -5.37216
rradius 37.3253
rwrist -1.38616
rhand -21.7242 -2.59615
rfingers 7.12502
rthumb 4.67512 -32.5246
lclavicle -6.28657e-015 -4.47266e-015
lhumerus -32.341 26.6897 33.3914
lradius 46.2533
lwrist 12.7547
lhand -19.1208 -0.117926
lfingers 7.12502
lthumb 7.18853 29.74
rfemur 3.43222 -3.25409 18.173
rtibia 27.1657
rfoot -3.15323 -16.9095
rtoes -13.7092
lfemur -19.6617 2.25776 -12.0282
ltibia 28.4289
lfoot -4.85858 14.5786
ltoes -5.944
